<?xml version="1.0" encoding="utf-8"?>
<!-- Generator: Adobe Illustrator 23.0.2, SVG Export Plug-In . SVG Version: 6.00 Build 0)  -->
<svg version="1.1" id="Layer_1" xmlns="http://www.w3.org/2000/svg" xmlns:xlink="http://www.w3.org/1999/xlink" x="0px" y="0px"
	 viewBox="0 0 612 396" style="enable-background:new 0 0 612 396;" xml:space="preserve">
<style type="text/css">
	.st0{fill:#63676B;}
	.st1{fill-rule:evenodd;clip-rule:evenodd;fill:#63676B;}
	.st2{fill-rule:evenodd;clip-rule:evenodd;fill:#B4BD35;}
</style>
<path class="st0" d="M97.5,193.35l-11.65-5.51c-17.44-8.2-24.54-12.82-24.54-25.74c0-11.95,9.13-20.3,22.2-20.3
	c12.5,0,20.92,4.67,27.29,15.16l0.81,1.32l13.15-8.42l-0.78-1.27c-9.23-14.94-22.15-21.9-40.68-21.9
	c-22.35,0-38.57,15.07-38.57,35.82c0,20.52,12.51,30.4,34.11,40.55l11.66,5.51c17.39,8.06,26.23,14.88,26.23,29.76
	c0,14.35-11.43,23.26-29.83,23.26c-15.98,0-28.89-7.76-36.36-21.85l-0.71-1.34l-14.33,7.55l0.71,1.34
	c10.19,19.23,28.27,29.82,50.89,29.82c28.63,0,46.41-15.02,46.41-39.21C133.52,215.02,120.31,204.23,97.5,193.35z"/>
<path class="st0" d="M267.41,237.1l-0.88,1.18c-11.45,15.26-27.94,23.32-47.71,23.32c-33.48,0-57.78-25.1-57.78-59.69
	c0-34.03,24.38-59.69,56.72-59.69c18.85,0,33.98,7.21,44.97,21.44l0.9,1.16l13.04-9.39l-0.94-1.24
	c-13.71-17.99-33.68-27.49-57.75-27.49c-42.4,0-74.37,32.33-74.37,75.21c-0.1,20.76,7.43,39.81,21.19,53.64
	c13.84,13.91,32.88,21.57,53.59,21.57c25.86,0,46.5-9.89,61.35-29.4l0.95-1.25L267.41,237.1z"/>
<path class="st0" d="M331.26,128.41h-32.43v147.03h16.79v-36h15.64c37.51,0,60.81-21.19,60.81-55.3
	C392.08,149.76,368.77,128.41,331.26,128.41z M315.63,143.72h14.79c36.73,0,44.44,21.98,44.44,40.42c0,18.24-7.71,39.99-44.44,39.99
	h-14.79V143.72z"/>
<g>
	<polygon class="st1" points="426.81,50.87 333.12,50.87 298.8,105.94 392.46,105.1 392.46,105.1 392.46,105.1 427.9,186.95 
		465.96,127.37 	"/>
	<polygon class="st2" points="392.46,105.1 430.41,192.5 465.96,127.37 426.85,50.87 	"/>
	<polygon class="st1" points="584.82,127.37 534.08,203.37 457.77,203.37 495.97,127.37 458.3,50.87 533.35,50.87 	"/>
	<polygon class="st2" points="584.82,127.37 533.35,50.87 458.3,50.87 495.87,127.17 	"/>
</g>
<g>
	<path class="st0" d="M116.38,304.86h5.8v20.02h17.88v-20.02h5.8v37.19h-5.8v-12.03h-17.88v12.03h-5.8V304.86z"/>
	<path class="st0" d="M154.82,304.86h23.62v5.09h-17.83v14.44h15.8v4.98h-15.8v7.6h18.59v5.09h-24.39V304.86z"/>
	<path class="st0" d="M199.94,304.48h0.66l16.3,37.57h-6.02l-2.13-5.25h-17.01l-2.13,5.25h-5.58L199.94,304.48z M206.67,331.94
		l-4.65-11.59c-0.93-2.19-1.86-5.52-1.86-5.52s-0.87,3.34-1.8,5.52l-4.65,11.59H206.67z"/>
	<path class="st0" d="M222.97,304.86h5.8v32.1h17.17v5.09h-22.97V304.86z"/>
	<path class="st0" d="M256.66,309.95h-11.05v-5.09h27.84v5.09H262.4v32.1h-5.74V309.95z"/>
	<path class="st0" d="M279.68,304.86h5.8v20.02h17.88v-20.02h5.8v37.19h-5.8v-12.03h-17.88v12.03h-5.8V304.86z"/>
</g>
<rect x="37.1" y="326.45" class="st0" width="62.76" height="3"/>
<rect x="324.94" y="326.45" class="st0" width="62.76" height="3"/>
</svg>
